<?xml version="1.0" encoding="utf-8"?>
<!-- Generator: Adobe Illustrator 21.1.0, SVG Export Plug-In . SVG Version: 6.00 Build 0)  -->
<svg version="1.1" id="Layer_4" xmlns="http://www.w3.org/2000/svg" xmlns:xlink="http://www.w3.org/1999/xlink" x="0px" y="0px"
	 viewBox="0 0 487.6 398.5" enable-background="new 0 0 487.6 398.5" xml:space="preserve">
<g>
	<g>
		<g>
			<path fill="#D2993E" d="M128.9,258.9L215,95.3c1.9-3.6-0.1-9.3-4.5-12.6C194.7,71,199.2,57.5,204,48.4c17.1-32.5,51.5-50,90-48.3
				l49.3,3.5c24.3,1.6,50,10.8,74,28.6c63.2,46.7,86.8,132.6,58.6,186.3c-3.5,6.6-8.8,14.2-17.6,13.1l-24.1-1.7L349.4,391
				c-2.6,4.9-7.4,7.5-12.8,7.5l-47.2-3.3c-4-0.1-8.3-1.6-12.2-4.5L137.9,287.6C128.4,280.5,124.3,267.7,128.9,258.9z"/>
			<path fill="#EFAF46" d="M351.2,16.5C292.7-14.9,229.3,0.2,204,48.4c-4.8,9.1-9.3,22.6,6.6,34.3c4.4,3.3,6.4,8.9,4.5,12.6
				l-86.1,163.7c-4.6,8.7-0.5,21.5,9,28.6l139.3,103.1c1,0.8,2.1,1.4,3.1,2c8.8,4.7,18.4,2.8,22.5-5L388.9,224c1.7-3.2,6-3.9,10-1.7
				c0.5,0.3,1,0.6,1.4,0.9c1.5,1.1,2.9,2,4.3,2.7c13.2,7.1,20.3-2.5,24.7-10.8c28.2-53.7,4.6-139.5-58.6-186.3
				C364.3,24.1,357.8,20,351.2,16.5L351.2,16.5z"/>
			<path fill="#FFF5D2" d="M419.8,123.7c-10-33.1-30.6-62.5-58.1-82.8c-5.7-4.2-11.6-8-17.6-11.2c-27.5-14.8-56.6-18.6-82.1-10.8
				C242,25,226.6,37.6,217.2,55.4c-4.4,8.5-3.4,11.1,2.2,15.3l0.1,0l0.1,0c10.3,7.8,14.1,21.3,8.7,31.5l-86.1,163.7
				c-0.7,1.3,0.4,6.4,4.7,9.6l139.3,103.1c2.1,0.9,4.5,0.1,5.5-2l84-159.6c2.5-4.9,6.9-8.4,12.2-10c5.9-1.8,12.3-1.1,18.2,2.1
				c1.1,0.6,3.2,2,3.2,2l0.1,0l0,0c1.9,1.4,4.5,0.8,5.7-1.2c0.3-0.5,0.6-1.1,1-1.8C427.8,185.6,429.2,154.8,419.8,123.7z"/>
		</g>
		<path fill="#FFD54B" d="M307.1,155.2l10.3,21.6l-1.4,1.2l-48-46.6l31.4,48.8l-3,7.8l-7.2,2.8l-9.6,0l-22.4-15.3l-6.4,3.7
			l21.3,35.7l-1.1,0.9L243.6,193l-18-18.6l8.8,30.4l-29-23.3l12.2,25.8l-14,6l22.9,19.5l-3.9,25.8l0,0c-8.7,8.9-11.9,16-7.7,16.7
			l46,7.9l12.4-2c2.6-0.4,8.6-5.8,8.1-7.3l8.3-25.2l16.2-4l0.7-7.8c0.2-1.6,5.1-5.7,6.7-5.6l22.1,2l10.6-2.9l-1.7-13.8
			c-0.8-6.8,15.7-24.9,33.3-36.6l0,0c6.1-4.1,11.4-10.4,9.8-11.6l-15.4-11l-2-15.4l-86.8-26.6L307.1,155.2z"/>
	</g>
	<g>
		<path fill="#CBCBCB" d="M309.9,58.9c8.9-8.9,24.1,1,19.8,12.9c-13.9,38.3-96.9,136.2-130,174.2c-3.9,4.4-10.8,4.7-15.2,0.6
			l-9.6-9.6l-21.5-21.5L309.9,58.9z"/>
		<path fill="#E7E7E7" d="M232.1,193.9C268.6,150.2,315.5,91,328.3,61c2,2.9,2.8,6.7,1.3,10.8c-13.9,38.3-96.9,136.2-130,174.2
			c-3.9,4.4-10.8,4.7-15.2,0.6l-9.6-9.6l-12.1-12.1C190.9,234.8,212.9,216.8,232.1,193.9z"/>
		<path fill="#E1E1E1" d="M153.3,215.5l21.5,21.5L35.1,389.9c-3.6,4-10,4.1-14,0.1L2.9,371.8c-3.9-3.9-3.9-10.2,0-13.8L153.3,215.5z
			"/>
		<path fill="#CBCBCB" d="M2.9,364.7l18.2,18.2c4,4,10.3,3.9,14-0.1l136.3-149.2l3.4,3.4L35.1,389.9c-3.6,4-10,4.1-14,0.1L2.9,371.8
			c-2.9-2.9-3.6-7.1-2.3-10.5C1.2,362.5,1.9,363.7,2.9,364.7z"/>
	</g>
</g>
</svg>
