<?xml version="1.0" encoding="utf-8"?>
<!-- Generator: Adobe Illustrator 21.1.0, SVG Export Plug-In . SVG Version: 6.00 Build 0)  -->
<svg version="1.1" id="Layer_4" xmlns="http://www.w3.org/2000/svg" xmlns:xlink="http://www.w3.org/1999/xlink" x="0px" y="0px"
	 viewBox="0 0 1748.9 398.5" style="enable-background:new 0 0 1748.9 398.5;" xml:space="preserve">
<style type="text/css">
	.st0{fill:#D2993E;}
	.st1{fill:#EFAF46;}
	.st2{fill:#FFF5D2;}
	.st3{fill:#FFD54B;}
	.st4{fill:#CBCBCB;}
	.st5{fill:#E7E7E7;}
	.st6{fill:#E1E1E1;}
</style>
<g>
	<g>
		<g>
			<path class="st0" d="M128.9,258.9L215,95.3c1.9-3.6-0.1-9.3-4.5-12.6C194.7,71,199.2,57.5,204,48.4c17.1-32.5,51.5-50,90-48.3
				l49.3,3.5c24.3,1.6,50,10.8,74,28.6c63.2,46.7,86.8,132.6,58.6,186.3c-3.5,6.6-8.8,14.2-17.6,13.1l-24.1-1.7L349.4,391
				c-2.6,4.9-7.4,7.5-12.8,7.5l-47.2-3.3c-4-0.1-8.3-1.6-12.2-4.5L137.9,287.6C128.4,280.5,124.3,267.7,128.9,258.9z"/>
			<path class="st1" d="M351.2,16.5C292.7-14.9,229.3,0.2,204,48.4c-4.8,9.1-9.3,22.6,6.6,34.3c4.4,3.3,6.4,8.9,4.5,12.6L129,259
				c-4.6,8.7-0.5,21.5,9,28.6l139.3,103.1c1,0.8,2.1,1.4,3.1,2c8.8,4.7,18.4,2.8,22.5-5l86-163.7c1.7-3.2,6-3.9,10-1.7
				c0.5,0.3,1,0.6,1.4,0.9c1.5,1.1,2.9,2,4.3,2.7c13.2,7.1,20.3-2.5,24.7-10.8c28.2-53.7,4.6-139.5-58.6-186.3
				C364.3,24.1,357.8,20,351.2,16.5L351.2,16.5z"/>
			<path class="st2" d="M419.8,123.7c-10-33.1-30.6-62.5-58.1-82.8c-5.7-4.2-11.6-8-17.6-11.2c-27.5-14.8-56.6-18.6-82.1-10.8
				c-20,6.1-35.4,18.7-44.8,36.5c-4.4,8.5-3.4,11.1,2.2,15.3h0.1h0.1c10.3,7.8,14.1,21.3,8.7,31.5l-86.1,163.7
				c-0.7,1.3,0.4,6.4,4.7,9.6l139.3,103.1c2.1,0.9,4.5,0.1,5.5-2l84-159.6c2.5-4.9,6.9-8.4,12.2-10c5.9-1.8,12.3-1.1,18.2,2.1
				c1.1,0.6,3.2,2,3.2,2h0.1l0,0c1.9,1.4,4.5,0.8,5.7-1.2c0.3-0.5,0.6-1.1,1-1.8C427.8,185.6,429.2,154.8,419.8,123.7z"/>
		</g>
		<path class="st3" d="M307.1,155.2l10.3,21.6L316,178l-48-46.6l31.4,48.8l-3,7.8l-7.2,2.8h-9.6l-22.4-15.3l-6.4,3.7l21.3,35.7
			l-1.1,0.9L243.6,193l-18-18.6l8.8,30.4l-29-23.3l12.2,25.8l-14,6l22.9,19.5l-3.9,25.8l0,0c-8.7,8.9-11.9,16-7.7,16.7l46,7.9
			l12.4-2c2.6-0.4,8.6-5.8,8.1-7.3l8.3-25.2l16.2-4l0.7-7.8c0.2-1.6,5.1-5.7,6.7-5.6l22.1,2l10.6-2.9l-1.7-13.8
			c-0.8-6.8,15.7-24.9,33.3-36.6l0,0c6.1-4.1,11.4-10.4,9.8-11.6l-15.4-11l-2-15.4l-86.8-26.6L307.1,155.2z"/>
	</g>
	<g>
		<path class="st4" d="M309.9,58.9c8.9-8.9,24.1,1,19.8,12.9c-13.9,38.3-96.9,136.2-130,174.2c-3.9,4.4-10.8,4.7-15.2,0.6l-9.6-9.6
			l-21.5-21.5L309.9,58.9z"/>
		<path class="st5" d="M232.1,193.9C268.6,150.2,315.5,91,328.3,61c2,2.9,2.8,6.7,1.3,10.8c-13.9,38.3-96.9,136.2-130,174.2
			c-3.9,4.4-10.8,4.7-15.2,0.6l-9.6-9.6l-12.1-12.1C190.9,234.8,212.9,216.8,232.1,193.9z"/>
		<path class="st6" d="M153.3,215.5l21.5,21.5L35.1,389.9c-3.6,4-10,4.1-14,0.1L2.9,371.8c-3.9-3.9-3.9-10.2,0-13.8L153.3,215.5z"/>
		<path class="st4" d="M2.9,364.7l18.2,18.2c4,4,10.3,3.9,14-0.1l136.3-149.2l3.4,3.4L35.1,389.9c-3.6,4-10,4.1-14,0.1L2.9,371.8
			c-2.9-2.9-3.6-7.1-2.3-10.5C1.2,362.5,1.9,363.7,2.9,364.7z"/>
	</g>
</g>
<g>
	<path class="st4" d="M687.4,267.6c0.1-9.8-2-18.1-6.3-25c-4.3-6.9-9.9-12.7-16.6-17.5c-6.7-4.8-14.2-8.8-22.5-12
		c-8.3-3.2-16.3-6.1-24.2-8.5c-5.7-1.7-11.5-3.6-17.4-5.8c-5.9-2.2-11.7-4.6-17.3-7.3c-5.6-2.7-10.8-5.8-15.7-9.3
		c-4.9-3.5-9.2-7.5-12.8-12c-3.6-4.5-6.5-9.6-8.6-15.2c-2.1-5.6-3.1-12-3-19.1c0-10,2.2-18.9,6.8-26.5c4.5-7.6,10.3-14,17.5-19.1
		c7.2-5.1,15.2-8.9,24.2-11.5c8.9-2.6,18-3.8,27.1-3.8c10.4,0,20.1,1.7,29.1,5c9.1,3.4,16.9,8.1,23.7,14.1c6.7,6,12.1,13.4,16.2,22
		c4,8.7,6.3,18.3,6.8,28.9h-9.1c-0.9-9-3.2-17.2-6.8-24.7c-3.6-7.5-8.3-13.9-14.1-19.2c-5.8-5.4-12.6-9.5-20.3-12.5
		c-7.7-3-16.2-4.4-25.5-4.4c-7.7,0-15.6,1-23.4,3.1s-15,5.2-21.4,9.4c-6.4,4.2-11.6,9.5-15.6,16c-4,6.4-6,14-6.2,22.8
		c-0.1,6.3,0.8,11.9,2.8,16.9c2,5,4.7,9.5,8.1,13.4s7.4,7.4,11.9,10.5c4.5,3.1,9.3,5.8,14.4,8.1c5.1,2.3,10.3,4.4,15.6,6.2
		c5.3,1.8,10.5,3.5,15.5,5c8.9,2.6,17.9,5.8,26.9,9.6c9.1,3.8,17.3,8.4,24.6,13.9c7.3,5.5,13.3,12.2,17.9,20.1
		c4.6,7.9,6.9,17.2,6.9,28c0,10.7-2.2,20-6.7,27.9c-4.4,7.9-10.3,14.5-17.5,19.7c-7.2,5.2-15.5,9.2-24.7,11.8s-18.7,3.9-28.4,3.9
		c-10.8,0-21.2-1.5-31.1-4.5c-9.9-3-18.7-7.5-26.3-13.4c-7.6-5.9-13.8-13.2-18.6-22s-7.4-18.8-7.9-30.3h9.1c1,10.1,3.7,19,7.9,26.6
		c4.3,7.6,9.7,13.9,16.4,19.1c6.7,5.1,14.3,9,22.9,11.5c8.6,2.6,17.8,3.8,27.6,3.8c8.3,0,16.5-1.1,24.7-3.2
		c8.1-2.1,15.4-5.3,21.8-9.7c6.4-4.3,11.5-9.9,15.5-16.7C685.5,285.2,687.4,277.1,687.4,267.6z"/>
	<path class="st4" d="M769.6,222.2v105.1h-9.2V78.5h75.9c10.6,0.2,20.4,2.1,29.6,5.6c9.1,3.5,17,8.4,23.8,14.7
		c6.7,6.3,12,13.9,15.8,22.7c3.8,8.8,5.7,18.7,5.7,29.7s-1.9,20.7-5.8,29.4c-3.9,8.7-9.2,16.1-15.9,22.2
		c-6.7,6.2-14.6,10.9-23.8,14.3c-9.1,3.4-18.9,5.1-29.4,5.2H769.6z M769.6,213h66.7c9-0.1,17.5-1.6,25.5-4.5c8-2.9,14.9-7,20.8-12.3
		c5.9-5.3,10.6-11.7,14.1-19.2c3.5-7.5,5.2-16,5.2-25.5c0-9.6-1.7-18.2-5-26c-3.4-7.7-8-14.4-13.8-19.9c-5.9-5.5-12.8-9.8-20.8-12.9
		c-8-3.1-16.7-4.7-25.9-5h-66.7V213z"/>
	<path class="st4" d="M1049.9,220.8h-73.1v106.5h-8.9V78.5h67.5c10.3,0.2,19.9,2.1,29.1,5.6c9.1,3.5,17.1,8.3,23.8,14.6
		c6.8,6.3,12.1,13.8,16.1,22.5c3.9,8.7,5.9,18.4,5.9,29.1c0,8.7-1.3,16.5-3.8,23.5c-2.6,7-6.1,13.3-10.7,18.9
		c-4.6,5.6-10,10.5-16.3,14.7c-6.3,4.2-13.2,7.8-20.8,10.8l61,106.8v2.4h-9.4L1049.9,220.8z M976.8,211.6h66.1
		c8.4-0.2,16.2-2,23.3-5.3c7.1-3.3,13.2-7.7,18.4-13.2c5.1-5.5,9.1-12,12-19.3c2.9-7.3,4.4-15.2,4.4-23.5c0-9.5-1.7-18-5.2-25.6
		c-3.5-7.6-8.2-14.2-14.1-19.6c-5.9-5.4-12.9-9.6-20.9-12.6c-8-3-16.6-4.6-25.5-4.8h-58.4V211.6z"/>
	<path class="st4" d="M1301.5,203.9h-115.7v114.2h131.9v9.2h-141V78.5h141v9.2h-131.9v107h115.7V203.9z"/>
	<path class="st4" d="M1509.6,252.9h-105.8l-24.3,74.3h-9.6l81.5-248.8h10.6l81.5,248.8h-9.6L1509.6,252.9z M1406.8,243.7h100
		l-49.9-152.6L1406.8,243.7z"/>
	<path class="st4" d="M1593.4,327.3V78.5h62.5c9.7,0.2,18.7,1.8,27.1,4.8c8.4,3,16,7,22.8,12c6.8,5.1,12.9,11.1,18.2,17.9
		c5.3,6.9,9.8,14.3,13.4,22.3c3.6,8,6.4,16.4,8.4,25.3c1.9,8.9,3,17.8,3.1,26.8v30.4c-0.1,9-1.1,17.9-3.1,26.8
		c-1.9,8.9-4.7,17.3-8.4,25.3c-3.6,8-8.1,15.4-13.4,22.3c-5.3,6.9-11.4,12.9-18.2,17.9c-6.8,5.1-14.4,9.1-22.8,12
		c-8.4,3-17.4,4.6-27.1,4.8H1593.4z M1602.3,87.7v230.4h53.7c8.9-0.2,17.1-1.7,24.6-4.4s14.4-6.4,20.5-11.1
		c6.2-4.7,11.6-10.2,16.4-16.5s8.8-13.2,12-20.5c3.2-7.3,5.7-15,7.4-23.1s2.6-16.1,2.7-24.4v-30.9c-0.2-12.2-2.2-24.2-6-35.9
		c-3.8-11.7-9.2-22.3-16.3-31.6c-7.1-9.3-15.8-16.9-26.1-22.7c-10.3-5.8-22.1-8.9-35.3-9.2H1602.3z"/>
</g>
</svg>
